<svg xmlns="http://www.w3.org/2000/svg" viewBox="0 0 1600 900" width="1600" height="900"><rect width="1600" height="900" fill="#FFFFFF"/><rect x="45" y="45" width="1510" height="810" rx="27" fill="#F4F6F9"/><rect x="0" y="0" width="162" height="13" fill="#F15A24"/><rect x="0" y="0" width="13" height="108" fill="#F15A24"/><circle cx="800.0" cy="423.0" r="270.0" fill="#FDE7DC" opacity="0.75"/><g transform="translate(665.0,423.0) scale(2.34)" stroke="#1B2A63" stroke-width="5" fill="none" stroke-linejoin="round" stroke-linecap="round"><rect x="-40" y="-62" width="80" height="124" rx="14" fill="#FFFFFF"/><rect x="-28" y="-48" width="56" height="80" rx="4" fill="#FDE7DC" stroke="none"/><rect x="-12" y="46" width="24" height="6" rx="3" fill="#F15A24" stroke="none"/></g><g transform="translate(935.0,423.0) scale(2.34)" stroke="#1B2A63" stroke-width="5" fill="none" stroke-linejoin="round" stroke-linecap="round"><rect x="-45" y="-30" width="90" height="72" rx="16" fill="#FFFFFF"/><rect x="-16" y="-52" width="9" height="24" fill="#1B2A63" stroke="none"/><rect x="7" y="-52" width="9" height="24" fill="#1B2A63" stroke="none"/><rect x="-14" y="26" width="28" height="10" rx="5" fill="#F15A24" stroke="none"/><rect x="-45" y="-8" width="90" height="7" fill="#F15A24" stroke="none"/></g></svg>