<svg xmlns="http://www.w3.org/2000/svg" viewBox="0 0 1200 900" width="1200" height="900"><rect width="1200" height="900" fill="#FFFFFF"/><rect x="45" y="45" width="1110" height="810" rx="27" fill="#F4F6F9"/><rect x="0" y="0" width="162" height="13" fill="#F15A24"/><rect x="0" y="0" width="13" height="108" fill="#F15A24"/><circle cx="600.0" cy="423.0" r="270.0" fill="#FDE7DC" opacity="0.75"/><g transform="translate(330.0,423.0) scale(2.34)" stroke="#1B2A63" stroke-width="5" fill="none" stroke-linejoin="round" stroke-linecap="round"><rect x="-38" y="-56" width="76" height="112" rx="14" fill="#FFFFFF"/><rect x="-24" y="30" width="8" height="8" rx="2" fill="#F15A24" stroke="none"/><rect x="-11" y="30" width="8" height="8" rx="2" fill="#F15A24" stroke="none"/><rect x="2" y="30" width="8" height="8" rx="2" fill="#F15A24" stroke="none"/><rect x="15" y="30" width="8" height="8" rx="2" fill="#E8EBF4" stroke="none"/><rect x="-13" y="-42" width="26" height="9" rx="4" fill="#1B2A63" stroke="none"/><path d="M-6,-14 L6,-14 L-2,4 L10,4 L-8,26 L-2,6 L-12,6 Z" fill="#F15A24" stroke="none"/></g><g transform="translate(600.0,423.0) scale(2.34)" stroke="#1B2A63" stroke-width="5" fill="none" stroke-linejoin="round" stroke-linecap="round"><path d="M-46,52 L46,52" stroke-width="7"/><path d="M-30,52 L-4,-10"/><path d="M-4,-10 L28,-10"/><g transform="rotate(12)"><rect x="-6" y="-62" width="52" height="76" rx="8" fill="#FFFFFF"/><rect x="4" y="-46" width="32" height="7" rx="3" fill="#F15A24" stroke="none"/></g></g><g transform="translate(870.0,423.0) scale(2.34)" stroke="#1B2A63" stroke-width="5" fill="none" stroke-linejoin="round" stroke-linecap="round"><rect x="-58" y="-34" width="116" height="68" rx="20" fill="#FFFFFF"/><circle cx="-42" cy="-16" r="3.2" fill="#E8EBF4" stroke="none"/><circle cx="-28" cy="-16" r="3.2" fill="#E8EBF4" stroke="none"/><circle cx="-14" cy="-16" r="3.2" fill="#E8EBF4" stroke="none"/><circle cx="0" cy="-16" r="3.2" fill="#E8EBF4" stroke="none"/><circle cx="14" cy="-16" r="3.2" fill="#E8EBF4" stroke="none"/><circle cx="28" cy="-16" r="3.2" fill="#E8EBF4" stroke="none"/><circle cx="42" cy="-16" r="3.2" fill="#E8EBF4" stroke="none"/><circle cx="-42" cy="0" r="3.2" fill="#E8EBF4" stroke="none"/><circle cx="-28" cy="0" r="3.2" fill="#E8EBF4" stroke="none"/><circle cx="-14" cy="0" r="3.2" fill="#E8EBF4" stroke="none"/><circle cx="0" cy="0" r="3.2" fill="#E8EBF4" stroke="none"/><circle cx="14" cy="0" r="3.2" fill="#E8EBF4" stroke="none"/><circle cx="28" cy="0" r="3.2" fill="#E8EBF4" stroke="none"/><circle cx="42" cy="0" r="3.2" fill="#E8EBF4" stroke="none"/><circle cx="-42" cy="16" r="3.2" fill="#E8EBF4" stroke="none"/><circle cx="-28" cy="16" r="3.2" fill="#E8EBF4" stroke="none"/><circle cx="-14" cy="16" r="3.2" fill="#E8EBF4" stroke="none"/><circle cx="0" cy="16" r="3.2" fill="#E8EBF4" stroke="none"/><circle cx="14" cy="16" r="3.2" fill="#E8EBF4" stroke="none"/><circle cx="28" cy="16" r="3.2" fill="#E8EBF4" stroke="none"/><circle cx="42" cy="16" r="3.2" fill="#E8EBF4" stroke="none"/><circle cx="-38" cy="0" r="9" fill="#F15A24" stroke="none"/></g></svg>