<svg xmlns="http://www.w3.org/2000/svg" viewBox="0 0 1920 900" width="1920" height="900"><rect width="1920" height="900" fill="#FFFFFF"/><rect x="0" y="0" width="23" height="900" fill="#F15A24"/><path d="M1190.4,0 L1920,0 L1920,900 L960.0,900 Z" fill="#F15A24" opacity="0.10"/><g transform="translate(1344.0,468.0) scale(2.34)" stroke="#1B2A63" stroke-width="5" fill="none" stroke-linejoin="round" stroke-linecap="round"><rect x="-45" y="-30" width="90" height="72" rx="16" fill="#FFFFFF"/><rect x="-16" y="-52" width="9" height="24" fill="#1B2A63" stroke="none"/><rect x="7" y="-52" width="9" height="24" fill="#1B2A63" stroke="none"/><rect x="-14" y="26" width="28" height="10" rx="5" fill="#F15A24" stroke="none"/><rect x="-45" y="-8" width="90" height="7" fill="#F15A24" stroke="none" opacity="0.9"/></g><g transform="translate(1535.9999999999998,468.0) scale(2.34)" stroke="#1B2A63" stroke-width="5" fill="none" stroke-linejoin="round" stroke-linecap="round"><path d="M-62,-38 C-10,-38 10,38 62,38" stroke="#F15A24" stroke-width="9"/><rect x="-78" y="-50" width="26" height="24" rx="6" fill="#FFFFFF"/><rect x="52" y="26" width="26" height="24" rx="6" fill="#FFFFFF"/><rect x="-70" y="-42" width="10" height="8" rx="4" fill="#1B2A63" stroke="none"/><rect x="60" y="34" width="10" height="8" rx="4" fill="#1B2A63" stroke="none"/></g><g transform="translate(1727.9999999999998,468.0) scale(2.34)" stroke="#1B2A63" stroke-width="5" fill="none" stroke-linejoin="round" stroke-linecap="round"><rect x="-52" y="6" width="104" height="52" rx="16" fill="#FFFFFF"/><line x1="0" y1="6" x2="0" y2="58" stroke="#E8EBF4" stroke-width="4"/><circle cx="-26" cy="-32" r="18" fill="#FFFFFF"/><path d="M-30,-16 L-30,6" stroke-width="7"/><circle cx="-26" cy="-32" r="7" fill="#F15A24" stroke="none"/><circle cx="26" cy="-32" r="18" fill="#FFFFFF"/><path d="M22,-16 L22,6" stroke-width="7"/><circle cx="26" cy="-32" r="7" fill="#F15A24" stroke="none"/></g><text x="134.4" y="378.0" text-anchor="start" font-family="Inter, Helvetica, Arial, sans-serif" font-size="27" font-weight="700" fill="#F15A24" letter-spacing="3">EDISI 01 · MEI 2026</text><text x="134.4" y="440.5" text-anchor="start" font-family="Inter, Helvetica, Arial, sans-serif" font-size="50" font-weight="700" fill="#1B2A63">Aksesoris yang menemani hari-hari.</text><text x="134.4" y="496.6" text-anchor="start" font-family="Inter, Helvetica, Arial, sans-serif" font-size="33" font-weight="500" fill="#9AA0AE">Kualitas konsisten. Harga masuk akal.</text><text x="1824" y="868" text-anchor="end" font-family="Inter, Helvetica, Arial, sans-serif" font-size="27" font-weight="700" fill="#1B2A63" opacity="0.55" letter-spacing="2">NOBLEKASE</text></svg>