<svg xmlns="http://www.w3.org/2000/svg" viewBox="0 0 1200 900" width="1200" height="900"><rect width="1200" height="900" fill="#FFFFFF"/><rect x="45" y="45" width="1110" height="810" rx="27" fill="#F4F6F9"/><rect x="0" y="0" width="162" height="13" fill="#F15A24"/><rect x="0" y="0" width="13" height="108" fill="#F15A24"/><circle cx="600.0" cy="423.0" r="270.0" fill="#FDE7DC" opacity="0.75"/><g transform="translate(465.0,423.0) scale(2.34)" stroke="#1B2A63" stroke-width="5" fill="none" stroke-linejoin="round" stroke-linecap="round"><rect x="-45" y="-30" width="90" height="72" rx="16" fill="#FFFFFF"/><rect x="-16" y="-52" width="9" height="24" fill="#1B2A63" stroke="none"/><rect x="7" y="-52" width="9" height="24" fill="#1B2A63" stroke="none"/><rect x="-14" y="26" width="28" height="10" rx="5" fill="#F15A24" stroke="none"/><rect x="-45" y="-8" width="90" height="7" fill="#F15A24" stroke="none"/></g><g transform="translate(735.0,423.0) scale(2.34)" stroke="#1B2A63" stroke-width="5" fill="none" stroke-linejoin="round" stroke-linecap="round"><rect x="-52" y="6" width="104" height="52" rx="16" fill="#FFFFFF"/><line x1="0" y1="6" x2="0" y2="58" stroke="#E8EBF4" stroke-width="4"/><circle cx="-26" cy="-32" r="18" fill="#FFFFFF"/><path d="M-30,-16 L-30,6" stroke-width="7"/><circle cx="-26" cy="-32" r="7" fill="#F15A24" stroke="none"/><circle cx="26" cy="-32" r="18" fill="#FFFFFF"/><path d="M22,-16 L22,6" stroke-width="7"/><circle cx="26" cy="-32" r="7" fill="#F15A24" stroke="none"/></g></svg>