<svg xmlns="http://www.w3.org/2000/svg" viewBox="0 0 1400 900" width="1400" height="900"><rect width="1400" height="900" fill="#F4F6F9"/><rect x="0" y="612.0" width="1400" height="288.0" fill="#FFFFFF"/><line x1="0" y1="612.0" x2="1400" y2="612.0" stroke="#E8EBF4" stroke-width="4"/><rect x="112.0" y="360.0" width="364.0" height="252.00000000000003" rx="8" fill="#FFFFFF" stroke="#E8EBF4" stroke-width="4"/><circle cx="1120.0" cy="468.0" r="90.0" fill="#FDE7DC"/><g transform="translate(770.0000000000001,495.00000000000006) scale(3.06)" stroke="#1B2A63" stroke-width="5" fill="none" stroke-linejoin="round" stroke-linecap="round"><rect x="-38" y="-56" width="76" height="112" rx="14" fill="#FFFFFF"/><rect x="-24" y="30" width="8" height="8" rx="2" fill="#F15A24" stroke="none"/><rect x="-11" y="30" width="8" height="8" rx="2" fill="#F15A24" stroke="none"/><rect x="2" y="30" width="8" height="8" rx="2" fill="#F15A24" stroke="none"/><rect x="15" y="30" width="8" height="8" rx="2" fill="#E8EBF4" stroke="none"/><rect x="-13" y="-42" width="26" height="9" rx="4" fill="#1B2A63" stroke="none"/><path d="M-6,-14 L6,-14 L-2,4 L10,4 L-8,26 L-2,6 L-12,6 Z" fill="#F15A24" stroke="none"/></g><text x="112.0" y="792.0" font-family="Inter, Helvetica, Arial, sans-serif" font-size="18" font-weight="700" fill="#F15A24" letter-spacing="3">PERJALANAN</text><text x="1330" y="868" text-anchor="end" font-family="Inter, Helvetica, Arial, sans-serif" font-size="20" font-weight="700" fill="#1B2A63" opacity="0.55" letter-spacing="2">NOBLEKASE</text></svg>