<svg xmlns="http://www.w3.org/2000/svg" viewBox="0 0 1600 600" width="1600" height="600"><rect width="1600" height="600" fill="#FFFFFF"/><rect x="0" y="0" width="1600" height="60" fill="#1B2A63"/><rect x="0" y="0" width="352" height="60" fill="#F15A24"/><circle cx="1280.0" cy="360.0" r="156.0" fill="#FDE7DC"/><g transform="translate(1280.0,360.0) scale(2.0400000000000005)" stroke="#1B2A63" stroke-width="5" fill="none" stroke-linejoin="round" stroke-linecap="round"><rect x="-58" y="-34" width="116" height="68" rx="20" fill="#FFFFFF"/><circle cx="-42" cy="-16" r="3.2" fill="#E8EBF4" stroke="none"/><circle cx="-28" cy="-16" r="3.2" fill="#E8EBF4" stroke="none"/><circle cx="-14" cy="-16" r="3.2" fill="#E8EBF4" stroke="none"/><circle cx="0" cy="-16" r="3.2" fill="#E8EBF4" stroke="none"/><circle cx="14" cy="-16" r="3.2" fill="#E8EBF4" stroke="none"/><circle cx="28" cy="-16" r="3.2" fill="#E8EBF4" stroke="none"/><circle cx="42" cy="-16" r="3.2" fill="#E8EBF4" stroke="none"/><circle cx="-42" cy="0" r="3.2" fill="#E8EBF4" stroke="none"/><circle cx="-28" cy="0" r="3.2" fill="#E8EBF4" stroke="none"/><circle cx="-14" cy="0" r="3.2" fill="#E8EBF4" stroke="none"/><circle cx="0" cy="0" r="3.2" fill="#E8EBF4" stroke="none"/><circle cx="14" cy="0" r="3.2" fill="#E8EBF4" stroke="none"/><circle cx="28" cy="0" r="3.2" fill="#E8EBF4" stroke="none"/><circle cx="42" cy="0" r="3.2" fill="#E8EBF4" stroke="none"/><circle cx="-42" cy="16" r="3.2" fill="#E8EBF4" stroke="none"/><circle cx="-28" cy="16" r="3.2" fill="#E8EBF4" stroke="none"/><circle cx="-14" cy="16" r="3.2" fill="#E8EBF4" stroke="none"/><circle cx="0" cy="16" r="3.2" fill="#E8EBF4" stroke="none"/><circle cx="14" cy="16" r="3.2" fill="#E8EBF4" stroke="none"/><circle cx="28" cy="16" r="3.2" fill="#E8EBF4" stroke="none"/><circle cx="42" cy="16" r="3.2" fill="#E8EBF4" stroke="none"/><circle cx="-38" cy="0" r="9" fill="#F15A24" stroke="none"/></g><text x="128.0" y="276.0" text-anchor="start" font-family="Inter, Helvetica, Arial, sans-serif" font-size="22" font-weight="700" fill="#F15A24" letter-spacing="3">DUKUNGAN</text><text x="128.0" y="339.75" text-anchor="start" font-family="Inter, Helvetica, Arial, sans-serif" font-size="51" font-weight="700" fill="#1B2A63">Bantu kami menjawab</text><text x="1520" y="579" text-anchor="end" font-family="Inter, Helvetica, Arial, sans-serif" font-size="22" font-weight="700" fill="#1B2A63" opacity="0.55" letter-spacing="2">NOBLEKASE</text></svg>