<svg xmlns="http://www.w3.org/2000/svg" viewBox="0 0 1200 900" width="1200" height="900"><rect width="1200" height="900" fill="#FFFFFF"/><rect x="45" y="45" width="1110" height="810" rx="27" fill="#F4F6F9"/><rect x="0" y="0" width="162" height="13" fill="#F15A24"/><rect x="0" y="0" width="13" height="108" fill="#F15A24"/><circle cx="600.0" cy="423.0" r="270.0" fill="#FDE7DC" opacity="0.75"/><g transform="translate(600.0,423.0) scale(3.78)" stroke="#1B2A63" stroke-width="5" fill="none" stroke-linejoin="round" stroke-linecap="round"><rect x="-58" y="-34" width="116" height="68" rx="20" fill="#FFFFFF"/><circle cx="-42" cy="-16" r="3.2" fill="#E8EBF4" stroke="none"/><circle cx="-28" cy="-16" r="3.2" fill="#E8EBF4" stroke="none"/><circle cx="-14" cy="-16" r="3.2" fill="#E8EBF4" stroke="none"/><circle cx="0" cy="-16" r="3.2" fill="#E8EBF4" stroke="none"/><circle cx="14" cy="-16" r="3.2" fill="#E8EBF4" stroke="none"/><circle cx="28" cy="-16" r="3.2" fill="#E8EBF4" stroke="none"/><circle cx="42" cy="-16" r="3.2" fill="#E8EBF4" stroke="none"/><circle cx="-42" cy="0" r="3.2" fill="#E8EBF4" stroke="none"/><circle cx="-28" cy="0" r="3.2" fill="#E8EBF4" stroke="none"/><circle cx="-14" cy="0" r="3.2" fill="#E8EBF4" stroke="none"/><circle cx="0" cy="0" r="3.2" fill="#E8EBF4" stroke="none"/><circle cx="14" cy="0" r="3.2" fill="#E8EBF4" stroke="none"/><circle cx="28" cy="0" r="3.2" fill="#E8EBF4" stroke="none"/><circle cx="42" cy="0" r="3.2" fill="#E8EBF4" stroke="none"/><circle cx="-42" cy="16" r="3.2" fill="#E8EBF4" stroke="none"/><circle cx="-28" cy="16" r="3.2" fill="#E8EBF4" stroke="none"/><circle cx="-14" cy="16" r="3.2" fill="#E8EBF4" stroke="none"/><circle cx="0" cy="16" r="3.2" fill="#E8EBF4" stroke="none"/><circle cx="14" cy="16" r="3.2" fill="#E8EBF4" stroke="none"/><circle cx="28" cy="16" r="3.2" fill="#E8EBF4" stroke="none"/><circle cx="42" cy="16" r="3.2" fill="#E8EBF4" stroke="none"/><circle cx="-38" cy="0" r="9" fill="#F15A24" stroke="none"/></g></svg>