<svg xmlns="http://www.w3.org/2000/svg" viewBox="0 0 1200 900" width="1200" height="900"><rect width="1200" height="900" fill="#FFFFFF"/><rect x="45" y="45" width="1110" height="810" rx="27" fill="#F4F6F9"/><rect x="0" y="0" width="162" height="13" fill="#F15A24"/><rect x="0" y="0" width="13" height="108" fill="#F15A24"/><circle cx="600.0" cy="423.0" r="270.0" fill="#FDE7DC" opacity="0.75"/><g transform="translate(465.0,423.0) scale(2.34)" stroke="#1B2A63" stroke-width="5" fill="none" stroke-linejoin="round" stroke-linecap="round"><path d="M-46,52 L46,52" stroke-width="7"/><path d="M-30,52 L-4,-10"/><path d="M-4,-10 L28,-10"/><g transform="rotate(12)"><rect x="-6" y="-62" width="52" height="76" rx="8" fill="#FFFFFF"/><rect x="4" y="-46" width="32" height="7" rx="3" fill="#F15A24" stroke="none"/></g></g><g transform="translate(735.0,423.0) scale(2.34)" stroke="#1B2A63" stroke-width="5" fill="none" stroke-linejoin="round" stroke-linecap="round"><path d="M0,-6 L-42,58"/><path d="M0,-6 L42,58"/><path d="M0,-6 L0,58"/><circle cx="0" cy="-14" r="12" fill="#F15A24" stroke="none"/><rect x="-26" y="-64" width="52" height="42" rx="6" fill="#FFFFFF"/></g><text x="600.0" y="738.0" text-anchor="middle" font-family="Inter, Helvetica, Arial, sans-serif" font-size="27" font-weight="700" fill="#1B2A63" letter-spacing="2.5">HOLDER &amp; STAND</text></svg>