<svg xmlns="http://www.w3.org/2000/svg" viewBox="0 0 1200 900" width="1200" height="900"><rect width="1200" height="900" fill="#FFFFFF"/><rect x="45" y="45" width="1110" height="810" rx="27" fill="#F4F6F9"/><rect x="0" y="0" width="162" height="13" fill="#F15A24"/><rect x="0" y="0" width="13" height="108" fill="#F15A24"/><circle cx="600.0" cy="423.0" r="270.0" fill="#FDE7DC" opacity="0.75"/><g transform="translate(465.0,423.0) scale(2.34)" stroke="#1B2A63" stroke-width="5" fill="none" stroke-linejoin="round" stroke-linecap="round"><rect x="-45" y="-30" width="90" height="72" rx="16" fill="#FFFFFF"/><rect x="-16" y="-52" width="9" height="24" fill="#1B2A63" stroke="none"/><rect x="7" y="-52" width="9" height="24" fill="#1B2A63" stroke="none"/><rect x="-14" y="26" width="28" height="10" rx="5" fill="#F15A24" stroke="none"/><rect x="-45" y="-8" width="90" height="7" fill="#F15A24" stroke="none"/></g><g transform="translate(735.0,423.0) scale(2.34)" stroke="#1B2A63" stroke-width="5" fill="none" stroke-linejoin="round" stroke-linecap="round"><rect x="-38" y="-56" width="76" height="112" rx="14" fill="#FFFFFF"/><rect x="-24" y="30" width="8" height="8" rx="2" fill="#F15A24" stroke="none"/><rect x="-11" y="30" width="8" height="8" rx="2" fill="#F15A24" stroke="none"/><rect x="2" y="30" width="8" height="8" rx="2" fill="#F15A24" stroke="none"/><rect x="15" y="30" width="8" height="8" rx="2" fill="#E8EBF4" stroke="none"/><rect x="-13" y="-42" width="26" height="9" rx="4" fill="#1B2A63" stroke="none"/><path d="M-6,-14 L6,-14 L-2,4 L10,4 L-8,26 L-2,6 L-12,6 Z" fill="#F15A24" stroke="none"/></g><text x="600.0" y="738.0" text-anchor="middle" font-family="Inter, Helvetica, Arial, sans-serif" font-size="27" font-weight="700" fill="#1B2A63" letter-spacing="2.5">CHARGER &amp; POWER</text></svg>