<svg xmlns="http://www.w3.org/2000/svg" viewBox="0 0 1080 1350" width="1080" height="1350"><defs><linearGradient id="bg" x1="0" y1="0" x2="1" y2="1"><stop offset="0" stop-color="#1B2A63"/><stop offset="1" stop-color="#141C42"/></linearGradient></defs><rect width="1080" height="1350" fill="url(#bg)"/><circle cx="540.0" cy="432.0" r="453.59999999999997" fill="#F15A24" opacity="0.13"/><g transform="translate(378.0,432.0) scale(2.8080000000000003)" stroke="#FFFFFF" stroke-width="5" fill="none" stroke-linejoin="round" stroke-linecap="round" opacity="0.95"><rect x="-52" y="6" width="104" height="52" rx="16"/><circle cx="-26" cy="-32" r="18"/><path d="M-30,-16 L-30,6" stroke-width="7"/><circle cx="-26" cy="-32" r="7" fill="#F15A24" stroke="none"/><circle cx="26" cy="-32" r="18"/><path d="M22,-16 L22,6" stroke-width="7"/><circle cx="26" cy="-32" r="7" fill="#F15A24" stroke="none"/></g><g transform="translate(702.0,432.0) scale(2.8080000000000003)" stroke="#FFFFFF" stroke-width="5" fill="none" stroke-linejoin="round" stroke-linecap="round" opacity="0.95"><rect x="-58" y="-34" width="116" height="68" rx="20"/><circle cx="-42" cy="-16" r="3" fill="#FFFFFF" stroke="none" opacity="0.35"/><circle cx="-28" cy="-16" r="3" fill="#FFFFFF" stroke="none" opacity="0.35"/><circle cx="-14" cy="-16" r="3" fill="#FFFFFF" stroke="none" opacity="0.35"/><circle cx="0" cy="-16" r="3" fill="#FFFFFF" stroke="none" opacity="0.35"/><circle cx="14" cy="-16" r="3" fill="#FFFFFF" stroke="none" opacity="0.35"/><circle cx="28" cy="-16" r="3" fill="#FFFFFF" stroke="none" opacity="0.35"/><circle cx="42" cy="-16" r="3" fill="#FFFFFF" stroke="none" opacity="0.35"/><circle cx="-42" cy="0" r="3" fill="#FFFFFF" stroke="none" opacity="0.35"/><circle cx="-28" cy="0" r="3" fill="#FFFFFF" stroke="none" opacity="0.35"/><circle cx="-14" cy="0" r="3" fill="#FFFFFF" stroke="none" opacity="0.35"/><circle cx="0" cy="0" r="3" fill="#FFFFFF" stroke="none" opacity="0.35"/><circle cx="14" cy="0" r="3" fill="#FFFFFF" stroke="none" opacity="0.35"/><circle cx="28" cy="0" r="3" fill="#FFFFFF" stroke="none" opacity="0.35"/><circle cx="42" cy="0" r="3" fill="#FFFFFF" stroke="none" opacity="0.35"/><circle cx="-42" cy="16" r="3" fill="#FFFFFF" stroke="none" opacity="0.35"/><circle cx="-28" cy="16" r="3" fill="#FFFFFF" stroke="none" opacity="0.35"/><circle cx="-14" cy="16" r="3" fill="#FFFFFF" stroke="none" opacity="0.35"/><circle cx="0" cy="16" r="3" fill="#FFFFFF" stroke="none" opacity="0.35"/><circle cx="14" cy="16" r="3" fill="#FFFFFF" stroke="none" opacity="0.35"/><circle cx="28" cy="16" r="3" fill="#FFFFFF" stroke="none" opacity="0.35"/><circle cx="42" cy="16" r="3" fill="#FFFFFF" stroke="none" opacity="0.35"/><circle cx="-38" cy="0" r="9" fill="#F15A24" stroke="none"/></g><rect x="0" y="1334" width="1080" height="16" fill="#F15A24"/></svg>