<svg xmlns="http://www.w3.org/2000/svg" viewBox="0 0 1920 800" width="1920" height="800"><defs><linearGradient id="bg" x1="0" y1="0" x2="1" y2="1"><stop offset="0" stop-color="#1B2A63"/><stop offset="1" stop-color="#141C42"/></linearGradient></defs><rect width="1920" height="800" fill="url(#bg)"/><circle cx="1382.3999999999999" cy="400.0" r="416.0" fill="#F15A24" opacity="0.13"/><path d="M998.4000000000001,0 L1920,0 L1920,800 L768.0,800 Z" fill="#FFFFFF" opacity="0.04"/><g transform="translate(1246.3999999999999,400.0) scale(2.4)" stroke="#FFFFFF" stroke-width="5" fill="none" stroke-linejoin="round" stroke-linecap="round" opacity="0.95"><rect x="-45" y="-30" width="90" height="72" rx="16"/><rect x="-16" y="-52" width="9" height="24" fill="#FFFFFF" stroke="none"/><rect x="7" y="-52" width="9" height="24" fill="#FFFFFF" stroke="none"/><rect x="-14" y="26" width="28" height="10" rx="5" fill="#F15A24" stroke="none"/><rect x="-45" y="-8" width="90" height="7" fill="#F15A24" stroke="none"/></g><g transform="translate(1518.3999999999999,400.0) scale(2.4)" stroke="#FFFFFF" stroke-width="5" fill="none" stroke-linejoin="round" stroke-linecap="round" opacity="0.95"><path d="M-62,-38 C-10,-38 10,38 62,38" stroke="#F15A24" stroke-width="9"/><rect x="-78" y="-50" width="26" height="24" rx="6"/><rect x="52" y="26" width="26" height="24" rx="6"/></g><rect x="0" y="790" width="1920" height="10" fill="#F15A24"/></svg>