<svg xmlns="http://www.w3.org/2000/svg" viewBox="0 0 1080 1350" width="1080" height="1350"><defs><linearGradient id="bg" x1="0" y1="0" x2="1" y2="1"><stop offset="0" stop-color="#1B2A63"/><stop offset="1" stop-color="#141C42"/></linearGradient></defs><rect width="1080" height="1350" fill="url(#bg)"/><circle cx="540.0" cy="432.0" r="453.59999999999997" fill="#F15A24" opacity="0.13"/><g transform="translate(378.0,432.0) scale(2.8080000000000003)" stroke="#FFFFFF" stroke-width="5" fill="none" stroke-linejoin="round" stroke-linecap="round" opacity="0.95"><rect x="-38" y="-56" width="76" height="112" rx="14"/><rect x="-24" y="30" width="8" height="8" rx="2" fill="#F15A24" stroke="none" opacity="1"/><rect x="-11" y="30" width="8" height="8" rx="2" fill="#F15A24" stroke="none" opacity="1"/><rect x="2" y="30" width="8" height="8" rx="2" fill="#F15A24" stroke="none" opacity="1"/><rect x="15" y="30" width="8" height="8" rx="2" fill="#FFFFFF" stroke="none" opacity="0.35"/><rect x="-13" y="-42" width="26" height="9" rx="4" fill="#FFFFFF" stroke="none"/><path d="M-6,-14 L6,-14 L-2,4 L10,4 L-8,26 L-2,6 L-12,6 Z" fill="#F15A24" stroke="none"/></g><g transform="translate(702.0,432.0) scale(2.8080000000000003)" stroke="#FFFFFF" stroke-width="5" fill="none" stroke-linejoin="round" stroke-linecap="round" opacity="0.95"><rect x="-45" y="-30" width="90" height="72" rx="16"/><rect x="-16" y="-52" width="9" height="24" fill="#FFFFFF" stroke="none"/><rect x="7" y="-52" width="9" height="24" fill="#FFFFFF" stroke="none"/><rect x="-14" y="26" width="28" height="10" rx="5" fill="#F15A24" stroke="none"/><rect x="-45" y="-8" width="90" height="7" fill="#F15A24" stroke="none"/></g><rect x="0" y="1334" width="1080" height="16" fill="#F15A24"/></svg>