<svg xmlns="http://www.w3.org/2000/svg" viewBox="0 0 1920 800" width="1920" height="800"><defs><linearGradient id="bg" x1="0" y1="0" x2="1" y2="1"><stop offset="0" stop-color="#1B2A63"/><stop offset="1" stop-color="#141C42"/></linearGradient></defs><rect width="1920" height="800" fill="url(#bg)"/><circle cx="1382.3999999999999" cy="400.0" r="416.0" fill="#F15A24" opacity="0.13"/><path d="M998.4000000000001,0 L1920,0 L1920,800 L768.0,800 Z" fill="#FFFFFF" opacity="0.04"/><g transform="translate(1110.3999999999999,400.0) scale(2.4)" stroke="#FFFFFF" stroke-width="5" fill="none" stroke-linejoin="round" stroke-linecap="round" opacity="0.95"><rect x="-52" y="6" width="104" height="52" rx="16"/><circle cx="-26" cy="-32" r="18"/><path d="M-30,-16 L-30,6" stroke-width="7"/><circle cx="-26" cy="-32" r="7" fill="#F15A24" stroke="none"/><circle cx="26" cy="-32" r="18"/><path d="M22,-16 L22,6" stroke-width="7"/><circle cx="26" cy="-32" r="7" fill="#F15A24" stroke="none"/></g><g transform="translate(1382.3999999999999,400.0) scale(2.4)" stroke="#FFFFFF" stroke-width="5" fill="none" stroke-linejoin="round" stroke-linecap="round" opacity="0.95"><rect x="-58" y="-34" width="116" height="68" rx="20"/><circle cx="-42" cy="-16" r="3" fill="#FFFFFF" stroke="none" opacity="0.35"/><circle cx="-28" cy="-16" r="3" fill="#FFFFFF" stroke="none" opacity="0.35"/><circle cx="-14" cy="-16" r="3" fill="#FFFFFF" stroke="none" opacity="0.35"/><circle cx="0" cy="-16" r="3" fill="#FFFFFF" stroke="none" opacity="0.35"/><circle cx="14" cy="-16" r="3" fill="#FFFFFF" stroke="none" opacity="0.35"/><circle cx="28" cy="-16" r="3" fill="#FFFFFF" stroke="none" opacity="0.35"/><circle cx="42" cy="-16" r="3" fill="#FFFFFF" stroke="none" opacity="0.35"/><circle cx="-42" cy="0" r="3" fill="#FFFFFF" stroke="none" opacity="0.35"/><circle cx="-28" cy="0" r="3" fill="#FFFFFF" stroke="none" opacity="0.35"/><circle cx="-14" cy="0" r="3" fill="#FFFFFF" stroke="none" opacity="0.35"/><circle cx="0" cy="0" r="3" fill="#FFFFFF" stroke="none" opacity="0.35"/><circle cx="14" cy="0" r="3" fill="#FFFFFF" stroke="none" opacity="0.35"/><circle cx="28" cy="0" r="3" fill="#FFFFFF" stroke="none" opacity="0.35"/><circle cx="42" cy="0" r="3" fill="#FFFFFF" stroke="none" opacity="0.35"/><circle cx="-42" cy="16" r="3" fill="#FFFFFF" stroke="none" opacity="0.35"/><circle cx="-28" cy="16" r="3" fill="#FFFFFF" stroke="none" opacity="0.35"/><circle cx="-14" cy="16" r="3" fill="#FFFFFF" stroke="none" opacity="0.35"/><circle cx="0" cy="16" r="3" fill="#FFFFFF" stroke="none" opacity="0.35"/><circle cx="14" cy="16" r="3" fill="#FFFFFF" stroke="none" opacity="0.35"/><circle cx="28" cy="16" r="3" fill="#FFFFFF" stroke="none" opacity="0.35"/><circle cx="42" cy="16" r="3" fill="#FFFFFF" stroke="none" opacity="0.35"/><circle cx="-38" cy="0" r="9" fill="#F15A24" stroke="none"/></g><g transform="translate(1654.3999999999999,400.0) scale(2.4)" stroke="#FFFFFF" stroke-width="5" fill="none" stroke-linejoin="round" stroke-linecap="round" opacity="0.95"><rect x="-38" y="-60" width="76" height="120" rx="16"/><rect x="-24" y="-46" width="30" height="30" rx="8" stroke-width="4"/><circle cx="-16" cy="-38" r="5" fill="#F15A24" stroke="none"/></g><rect x="0" y="790" width="1920" height="10" fill="#F15A24"/></svg>