<svg xmlns="http://www.w3.org/2000/svg" viewBox="0 0 800 1000" width="800" height="1000"><rect width="800" height="1000" fill="#FFFFFF"/><rect x="44" y="44" width="712" height="912" rx="16" fill="#F4F6F9"/><rect x="0" y="0" width="128" height="12" fill="#F15A24"/><rect x="0" y="0" width="12" height="79.36" fill="#F15A24"/><g transform="translate(400.0,400.0) scale(4.4)" stroke="#1B2A63" stroke-width="5" fill="none" stroke-linejoin="round" stroke-linecap="round"><rect x="-58" y="-34" width="116" height="68" rx="20" fill="#FFFFFF"/><circle cx="-42" cy="-16" r="3.2" fill="#E8EBF4" stroke="none"/><circle cx="-28" cy="-16" r="3.2" fill="#E8EBF4" stroke="none"/><circle cx="-14" cy="-16" r="3.2" fill="#E8EBF4" stroke="none"/><circle cx="0" cy="-16" r="3.2" fill="#E8EBF4" stroke="none"/><circle cx="14" cy="-16" r="3.2" fill="#E8EBF4" stroke="none"/><circle cx="28" cy="-16" r="3.2" fill="#E8EBF4" stroke="none"/><circle cx="42" cy="-16" r="3.2" fill="#E8EBF4" stroke="none"/><circle cx="-42" cy="0" r="3.2" fill="#E8EBF4" stroke="none"/><circle cx="-28" cy="0" r="3.2" fill="#E8EBF4" stroke="none"/><circle cx="-14" cy="0" r="3.2" fill="#E8EBF4" stroke="none"/><circle cx="0" cy="0" r="3.2" fill="#E8EBF4" stroke="none"/><circle cx="14" cy="0" r="3.2" fill="#E8EBF4" stroke="none"/><circle cx="28" cy="0" r="3.2" fill="#E8EBF4" stroke="none"/><circle cx="42" cy="0" r="3.2" fill="#E8EBF4" stroke="none"/><circle cx="-42" cy="16" r="3.2" fill="#E8EBF4" stroke="none"/><circle cx="-28" cy="16" r="3.2" fill="#E8EBF4" stroke="none"/><circle cx="-14" cy="16" r="3.2" fill="#E8EBF4" stroke="none"/><circle cx="0" cy="16" r="3.2" fill="#E8EBF4" stroke="none"/><circle cx="14" cy="16" r="3.2" fill="#E8EBF4" stroke="none"/><circle cx="28" cy="16" r="3.2" fill="#E8EBF4" stroke="none"/><circle cx="42" cy="16" r="3.2" fill="#E8EBF4" stroke="none"/><circle cx="-38" cy="0" r="9" fill="#F15A24" stroke="none"/></g><text x="400.0" y="760.0" text-anchor="middle" font-family="Inter, Helvetica, Arial, sans-serif" font-size="11" font-weight="700" fill="#F15A24" letter-spacing="3">SPEAKER MINI</text><text x="400.0" y="805.0" text-anchor="middle" font-family="Inter, Helvetica, Arial, sans-serif" font-size="36" font-weight="700" fill="#1B2A63">10W IP67</text><text x="400.0" y="828.8" text-anchor="middle" font-family="Inter, Helvetica, Arial, sans-serif" font-size="14" font-weight="500" fill="#9AA0AE">16 jam</text><text x="760" y="965" text-anchor="end" font-family="Inter, Helvetica, Arial, sans-serif" font-size="11" font-weight="700" fill="#1B2A63" opacity="0.55" letter-spacing="2">NOBLEKASE</text></svg>