<svg xmlns="http://www.w3.org/2000/svg" viewBox="0 0 1000 1000" width="1000" height="1000"><rect width="1000" height="1000" fill="#FFFFFF"/><rect x="50" y="50" width="900" height="900" rx="30" fill="#F4F6F9"/><rect x="0" y="0" width="180" height="14" fill="#F15A24"/><rect x="0" y="0" width="14" height="120" fill="#F15A24"/><circle cx="500.0" cy="470.0" r="300.0" fill="#FDE7DC" opacity="0.75"/><g transform="translate(500.0,470.0) scale(4.2)" stroke="#1B2A63" stroke-width="5" fill="none" stroke-linejoin="round" stroke-linecap="round"><rect x="-58" y="-34" width="116" height="68" rx="20" fill="#FFFFFF"/><circle cx="-42" cy="-16" r="3.2" fill="#E8EBF4" stroke="none"/><circle cx="-28" cy="-16" r="3.2" fill="#E8EBF4" stroke="none"/><circle cx="-14" cy="-16" r="3.2" fill="#E8EBF4" stroke="none"/><circle cx="0" cy="-16" r="3.2" fill="#E8EBF4" stroke="none"/><circle cx="14" cy="-16" r="3.2" fill="#E8EBF4" stroke="none"/><circle cx="28" cy="-16" r="3.2" fill="#E8EBF4" stroke="none"/><circle cx="42" cy="-16" r="3.2" fill="#E8EBF4" stroke="none"/><circle cx="-42" cy="0" r="3.2" fill="#E8EBF4" stroke="none"/><circle cx="-28" cy="0" r="3.2" fill="#E8EBF4" stroke="none"/><circle cx="-14" cy="0" r="3.2" fill="#E8EBF4" stroke="none"/><circle cx="0" cy="0" r="3.2" fill="#E8EBF4" stroke="none"/><circle cx="14" cy="0" r="3.2" fill="#E8EBF4" stroke="none"/><circle cx="28" cy="0" r="3.2" fill="#E8EBF4" stroke="none"/><circle cx="42" cy="0" r="3.2" fill="#E8EBF4" stroke="none"/><circle cx="-42" cy="16" r="3.2" fill="#E8EBF4" stroke="none"/><circle cx="-28" cy="16" r="3.2" fill="#E8EBF4" stroke="none"/><circle cx="-14" cy="16" r="3.2" fill="#E8EBF4" stroke="none"/><circle cx="0" cy="16" r="3.2" fill="#E8EBF4" stroke="none"/><circle cx="14" cy="16" r="3.2" fill="#E8EBF4" stroke="none"/><circle cx="28" cy="16" r="3.2" fill="#E8EBF4" stroke="none"/><circle cx="42" cy="16" r="3.2" fill="#E8EBF4" stroke="none"/><circle cx="-38" cy="0" r="9" fill="#F15A24" stroke="none"/></g><text x="500.0" y="820.0" text-anchor="middle" font-family="Inter, Helvetica, Arial, sans-serif" font-size="30" font-weight="700" fill="#1B2A63" letter-spacing="2.5">SPEAKER MINI</text></svg>