<svg xmlns="http://www.w3.org/2000/svg" viewBox="0 0 1000 1000" width="1000" height="1000"><rect width="1000" height="1000" fill="#FFFFFF"/><rect x="50" y="50" width="900" height="900" rx="30" fill="#F4F6F9"/><rect x="0" y="0" width="180" height="14" fill="#F15A24"/><rect x="0" y="0" width="14" height="120" fill="#F15A24"/><circle cx="500.0" cy="470.0" r="300.0" fill="#FDE7DC" opacity="0.75"/><g transform="translate(500.0,470.0) scale(4.2)" stroke="#1B2A63" stroke-width="5" fill="none" stroke-linejoin="round" stroke-linecap="round"><rect x="-38" y="-56" width="76" height="112" rx="14" fill="#FFFFFF"/><rect x="-24" y="30" width="8" height="8" rx="2" fill="#F15A24" stroke="none"/><rect x="-11" y="30" width="8" height="8" rx="2" fill="#F15A24" stroke="none"/><rect x="2" y="30" width="8" height="8" rx="2" fill="#F15A24" stroke="none"/><rect x="15" y="30" width="8" height="8" rx="2" fill="#E8EBF4" stroke="none"/><rect x="-13" y="-42" width="26" height="9" rx="4" fill="#1B2A63" stroke="none"/><path d="M-6,-14 L6,-14 L-2,4 L10,4 L-8,26 L-2,6 L-12,6 Z" fill="#F15A24" stroke="none"/></g><text x="500.0" y="820.0" text-anchor="middle" font-family="Inter, Helvetica, Arial, sans-serif" font-size="30" font-weight="700" fill="#1B2A63" letter-spacing="2.5">POWERBANK 20K</text></svg>