<svg xmlns="http://www.w3.org/2000/svg" viewBox="0 0 800 1000" width="800" height="1000"><rect width="800" height="1000" fill="#FFFFFF"/><rect x="44" y="44" width="712" height="912" rx="16" fill="#F4F6F9"/><rect x="0" y="0" width="128" height="12" fill="#F15A24"/><rect x="0" y="0" width="12" height="79.36" fill="#F15A24"/><g transform="translate(400.0,400.0) scale(4.4)" stroke="#1B2A63" stroke-width="5" fill="none" stroke-linejoin="round" stroke-linecap="round"><rect x="-38" y="-56" width="76" height="112" rx="14" fill="#FFFFFF"/><rect x="-24" y="30" width="8" height="8" rx="2" fill="#F15A24" stroke="none"/><rect x="-11" y="30" width="8" height="8" rx="2" fill="#F15A24" stroke="none"/><rect x="2" y="30" width="8" height="8" rx="2" fill="#F15A24" stroke="none"/><rect x="15" y="30" width="8" height="8" rx="2" fill="#E8EBF4" stroke="none"/><rect x="-13" y="-42" width="26" height="9" rx="4" fill="#1B2A63" stroke="none"/><path d="M-6,-14 L6,-14 L-2,4 L10,4 L-8,26 L-2,6 L-12,6 Z" fill="#F15A24" stroke="none"/></g><text x="400.0" y="760.0" text-anchor="middle" font-family="Inter, Helvetica, Arial, sans-serif" font-size="11" font-weight="700" fill="#F15A24" letter-spacing="3">POWERBANK</text><text x="400.0" y="805.0" text-anchor="middle" font-family="Inter, Helvetica, Arial, sans-serif" font-size="36" font-weight="700" fill="#1B2A63">10.000 mAh</text><text x="400.0" y="828.8" text-anchor="middle" font-family="Inter, Helvetica, Arial, sans-serif" font-size="14" font-weight="500" fill="#9AA0AE">PD 22.5W</text><text x="760" y="965" text-anchor="end" font-family="Inter, Helvetica, Arial, sans-serif" font-size="11" font-weight="700" fill="#1B2A63" opacity="0.55" letter-spacing="2">NOBLEKASE</text></svg>