<svg xmlns="http://www.w3.org/2000/svg" viewBox="0 0 1200 630" width="1200" height="630"><rect width="1200" height="630" fill="#FFFFFF"/><rect x="0" y="0" width="1200" height="32" fill="#F15A24"/><rect x="0" y="598" width="1200" height="32" fill="#1B2A63"/><g transform="translate(360.0,302.4) scale(1.6380000000000001)" stroke="#1B2A63" stroke-width="5" fill="none" stroke-linejoin="round" stroke-linecap="round"><rect x="-45" y="-30" width="90" height="72" rx="16" fill="#FFFFFF"/><rect x="-16" y="-52" width="9" height="24" fill="#1B2A63" stroke="none"/><rect x="7" y="-52" width="9" height="24" fill="#1B2A63" stroke="none"/><rect x="-14" y="26" width="28" height="10" rx="5" fill="#F15A24" stroke="none"/><rect x="-45" y="-8" width="90" height="7" fill="#F15A24" stroke="none"/></g><g transform="translate(600.0,302.4) scale(1.6380000000000001)" stroke="#1B2A63" stroke-width="5" fill="none" stroke-linejoin="round" stroke-linecap="round"><path d="M-62,-38 C-10,-38 10,38 62,38" stroke="#F15A24" stroke-width="9"/><rect x="-78" y="-50" width="26" height="24" rx="6" fill="#FFFFFF"/><rect x="52" y="26" width="26" height="24" rx="6" fill="#FFFFFF"/><rect x="-70" y="-42" width="10" height="8" rx="4" fill="#1B2A63" stroke="none"/><rect x="60" y="34" width="10" height="8" rx="4" fill="#1B2A63" stroke="none"/></g><g transform="translate(840.0,302.4) scale(1.6380000000000001)" stroke="#1B2A63" stroke-width="5" fill="none" stroke-linejoin="round" stroke-linecap="round"><rect x="-52" y="6" width="104" height="52" rx="16" fill="#FFFFFF"/><line x1="0" y1="6" x2="0" y2="58" stroke="#E8EBF4" stroke-width="4"/><circle cx="-26" cy="-32" r="18" fill="#FFFFFF"/><path d="M-30,-16 L-30,6" stroke-width="7"/><circle cx="-26" cy="-32" r="7" fill="#F15A24" stroke="none"/><circle cx="26" cy="-32" r="18" fill="#FFFFFF"/><path d="M22,-16 L22,6" stroke-width="7"/><circle cx="26" cy="-32" r="7" fill="#F15A24" stroke="none"/></g><text x="600.0" y="529.1999999999999" text-anchor="middle" font-family="Inter, Helvetica, Arial, sans-serif" font-size="39" font-weight="700" fill="#1B2A63" letter-spacing="3">NOBLEKASE</text></svg>